<?xml version="1.0" standalone="no"?>
<!DOCTYPE svg PUBLIC "-//W3C//DTD SVG 20010904//EN"
 "http://www.w3.org/TR/2001/REC-SVG-20010904/DTD/svg10.dtd">
<svg version="1.0" xmlns="http://www.w3.org/2000/svg"
 width="836.000000pt" height="848.000000pt" viewBox="0 0 836.000000 848.000000"
 preserveAspectRatio="xMidYMid meet">

<g transform="translate(0.000000,848.000000) scale(0.100000,-0.100000)"
fill="#000000" stroke="none">
<path d="M630 8325 c-13 -20 -30 -35 -41 -35 -15 0 -19 -8 -21 -42 0 -24 -1
-50 0 -58 1 -8 8 -283 16 -610 10 -388 19 -596 26 -598 15 -5 12 -30 -5 -39
-12 -7 160 -207 770 -896 l784 -886 -375 -1153 c-206 -634 -379 -1162 -385
-1174 -7 -14 -7 -214 0 -640 6 -340 11 -625 12 -631 1 -7 218 -267 481 -577
337 -398 483 -564 493 -560 12 5 15 -2 15 -30 l0 -36 1730 0 c1663 0 1730 1
1730 18 0 26 54 64 69 49 8 -8 14 -9 19 -1 4 6 213 265 466 577 309 382 466
567 480 569 l21 3 -4 455 c-2 250 -7 536 -11 635 l-7 180 -322 1164 c-177 641
-320 1168 -319 1172 2 4 335 409 741 899 406 489 735 895 732 900 -3 6 1 10 9
10 19 0 19 -60 1 695 -8 330 -15 603 -15 608 0 4 -17 7 -39 7 -27 0 -43 6 -52
19 -13 19 -58 -4 -922 -475 l-908 -494 -1659 0 -1659 0 -893 493 c-491 272
-903 499 -915 505 -19 11 -24 8 -43 -23z m858 -650 c386 -213 702 -390 702
-394 0 -6 -1391 -234 -1396 -228 -4 4 -24 740 -24 900 0 65 3 116 8 114 4 -2
323 -178 710 -392z m6043 393 c2 -4 26 -1003 25 -1004 -2 -3 -1468 215 -1471
218 -4 4 1424 785 1438 787 4 1 8 0 8 -1z m-5239 -960 c-1 -29 -20 -424 -42
-877 -23 -454 -42 -826 -43 -827 -2 -2 -306 339 -676 757 -370 419 -671 762
-669 764 2 2 1388 230 1423 234 6 1 9 -21 7 -51z m1735 40 c-2 -7 -112 -401
-243 -875 l-239 -863 -145 0 -145 0 -355 866 c-195 476 -356 870 -358 875 -2
5 301 9 743 9 594 0 746 -3 742 -12z m1655 -201 c-48 -117 -208 -511 -357
-875 l-270 -662 -135 3 -134 2 -189 555 c-104 305 -237 698 -297 873 l-108
317 789 0 788 0 -87 -213z m1068 99 c382 -56 695 -105 695 -109 0 -4 -286
-352 -635 -774 -507 -612 -636 -762 -641 -747 -4 11 -42 384 -84 829 -42 446
-79 833 -82 861 l-5 51 28 -4 c16 -3 342 -51 724 -107z m-3960 -844 l354 -864
-65 -130 c-35 -71 -67 -132 -70 -134 -6 -3 -673 154 -675 159 -4 11 92 1853
97 1844 3 -7 165 -400 359 -875z m3175 -71 c47 -487 83 -886 81 -889 -5 -5
-653 -182 -666 -182 -6 0 -49 78 -96 173 l-86 172 338 829 c203 496 340 820
342 805 1 -13 40 -422 87 -908z m-1557 -6 l279 -820 -66 -132 -66 -133 -367 0
-368 0 -79 158 c-51 102 -76 163 -71 172 4 8 105 369 226 803 120 433 221 784
225 780 4 -5 133 -377 287 -828z m1590 -1047 c-113 -313 -664 -1743 -667
-1731 -2 10 -36 302 -76 648 -47 414 -68 632 -61 637 5 3 41 68 80 144 l71
138 315 87 c173 47 321 87 329 88 7 0 11 -5 9 -11z m-3283 -76 l320 -77 60
-117 59 -116 -53 -629 c-29 -345 -56 -651 -59 -680 -7 -52 -8 -48 -332 813
-179 476 -326 869 -328 874 -2 6 0 10 5 10 4 0 152 -35 328 -78z m3690 -1111
c152 -552 274 -1006 272 -1008 -3 -2 -292 47 -644 108 l-640 113 107 280 c58
155 219 576 356 938 l249 656 12 -41 c6 -23 136 -494 288 -1046z m-3781 164
l324 -860 -637 -127 c-350 -70 -643 -126 -652 -125 -14 2 40 177 302 982 351
1076 330 1014 335 1000 2 -5 150 -397 328 -870z m2023 772 c26 -54 38 -88 33
-98 -5 -8 -130 -340 -280 -739 -149 -399 -275 -728 -278 -732 -7 -7 -453 1394
-452 1419 0 7 23 60 52 117 50 101 53 105 88 109 19 2 206 4 415 5 l381 2 41
-83z m-867 -943 c129 -410 236 -752 238 -760 3 -12 -57 -14 -431 -14 l-435 0
4 38 c7 53 124 1443 124 1464 0 16 13 18 133 18 l132 0 235 -746z m1274 709
c9 -56 166 -1444 166 -1465 0 -17 -25 -18 -500 -18 -275 0 -500 3 -500 7 0 3
127 345 282 760 l281 753 133 0 132 0 6 -37z m-2324 -1924 l-191 -380 -42 23
c-23 13 -233 127 -466 253 l-424 230 634 126 c349 70 644 127 657 128 20 1 3
-38 -168 -380z m3255 195 c308 -54 563 -100 567 -103 7 -6 -770 -473 -795
-479 -7 -1 -84 142 -184 342 -95 190 -167 343 -160 341 6 -2 264 -48 572 -101z
m-581 -332 l194 -387 -194 -388 -194 -387 -1070 0 -1070 0 -194 387 -194 388
194 387 194 388 1070 0 1070 0 194 -388z m1315 -509 c0 -167 -2 -303 -6 -303
-21 1 -845 456 -842 465 2 6 191 121 419 257 l415 247 6 -182 c4 -100 7 -318
8 -484z m-4684 386 c307 -166 442 -245 439 -254 -3 -7 -1 -22 5 -32 9 -17 -27
-34 -430 -197 -242 -98 -443 -176 -446 -172 -4 4 -8 75 -10 159 -6 304 -9 737
-6 737 2 0 204 -108 448 -241z m4174 -573 c231 -125 424 -232 426 -237 6 -8
-783 -989 -794 -989 -3 1 -112 143 -242 317 l-237 317 206 413 c114 227 210
412 213 411 3 -2 196 -106 428 -232z m-3286 -636 c-12 -25 -477 -559 -484
-557 -13 4 -818 961 -813 967 3 3 211 89 462 191 l457 186 193 -385 c141 -281
191 -390 185 -402z m2096 -24 c-8 -8 -891 -626 -894 -626 -4 0 -824 607 -839
621 -6 5 354 9 864 9 480 0 871 -2 869 -4z m462 -313 l230 -308 -335 -3 c-185
-1 -488 -1 -673 0 l-337 3 439 308 c242 169 441 307 442 307 2 0 107 -138 234
-307z m-1963 -33 l371 -275 -666 -3 c-366 -1 -668 0 -670 2 -3 2 113 140 257
305 l262 301 38 -27 c20 -16 204 -152 408 -303z"/>
<path d="M3384 2358 l-76 -153 76 -152 76 -153 190 0 190 0 76 153 76 152 -76
153 -76 152 -190 0 -190 0 -76 -152z m365 -95 l29 -58 -29 -57 -29 -58 -70 0
-70 0 -29 58 -29 57 29 58 29 57 70 0 70 0 29 -57z"/>
<path d="M4424 2318 l-76 -153 76 -152 76 -153 190 0 190 0 76 153 76 152 -76
153 -76 152 -190 0 -190 0 -76 -152z m365 -95 l29 -58 -29 -57 -29 -58 -70 0
-70 0 -29 58 -29 57 29 58 29 57 70 0 70 0 29 -57z"/>
</g>
</svg>
